<svg width="17" height="13" viewBox="0 0 17 13" fill="none" xmlns="http://www.w3.org/2000/svg">
<path fill-rule="evenodd" clip-rule="evenodd" d="M14.3403 11.115C14.3816 11.1204 14.4228 11.1261 14.464 11.1319L14.6713 11.1609C15.5736 11.2875 16.3808 10.5998 16.3808 9.70454V9.02127C16.3808 8.38097 15.971 7.8098 15.3572 7.59444C14.6479 7.34563 13.9157 7.18362 13.1766 7.10842C13.9478 7.66604 14.4262 8.56899 14.4262 9.55409V10.4024C14.4262 10.6488 14.3964 10.8873 14.3403 11.115ZM11.2142 6.19946C11.5215 6.32635 11.8592 6.39648 12.2135 6.39648C13.639 6.39648 14.7945 5.2614 14.7945 3.8612C14.7945 2.461 13.639 1.32591 12.2135 1.32591C12.1713 1.32591 12.1293 1.32691 12.0875 1.32888C12.3467 1.88095 12.4916 2.49736 12.4916 3.14762C12.4916 4.34213 12.0028 5.42246 11.2142 6.19946Z" fill="#D6A13A"/>
<path fill-rule="evenodd" clip-rule="evenodd" d="M2.04055 11.115C1.99929 11.1204 1.95805 11.1261 1.91682 11.1319L1.70959 11.1609C0.807302 11.2875 4.00543e-05 10.5998 4.00543e-05 9.70454V9.02127C4.00543e-05 8.38097 0.409822 7.8098 1.0237 7.59444C1.73295 7.34563 2.46516 7.18362 3.20431 7.10842C2.43306 7.66604 1.9547 8.56899 1.9547 9.55409V10.4024C1.9547 10.6488 1.98452 10.8873 2.04055 11.115ZM5.16669 6.19946C4.85933 6.32635 4.52169 6.39648 4.16738 6.39648C2.74191 6.39648 1.58634 5.2614 1.58634 3.8612C1.58634 2.461 2.74191 1.32591 4.16738 1.32591C4.20961 1.32591 4.25161 1.32691 4.29334 1.32888C4.03412 1.88095 3.88926 2.49736 3.88926 3.14762C3.88926 4.34213 4.37812 5.42246 5.16669 6.19946Z" fill="#D6A13A"/>
<path fill-rule="evenodd" clip-rule="evenodd" d="M11.355 3.14767C11.355 1.40926 9.94575 0 8.20734 0C6.46893 0 5.05967 1.40926 5.05967 3.14767C5.05967 4.88608 6.46893 6.29535 8.20734 6.29535C9.94575 6.29535 11.355 4.88608 11.355 3.14767Z" fill="#D6A13A"/>
<path fill-rule="evenodd" clip-rule="evenodd" d="M4.37352 7.78267C6.85272 6.89724 9.56197 6.89724 12.0412 7.78267C12.7898 8.05005 13.2896 8.75918 13.2896 9.55415V10.4025C13.2896 11.514 12.3051 12.3678 11.2047 12.2106L10.952 12.1745C9.13146 11.9145 7.28322 11.9145 5.46271 12.1745L5.20998 12.2106C4.10961 12.3678 3.12512 11.514 3.12512 10.4025V9.55415C3.12512 8.75918 3.62487 8.05005 4.37352 7.78267Z" fill="#D6A13A"/>
</svg>
